<mxfile host="app.diagrams.net" modified="2024-07-02T12:36:40.431Z" agent="Mozilla/5.0 (Windows NT 10.0; Win64; x64) AppleWebKit/537.36 (KHTML, like Gecko) Chrome/126.0.0.0 Safari/537.36" etag="CPIuZFkff1rImXJayNHI" version="24.6.4" type="device">
  <diagram name="Page-1" id="Y-0BxKymTZA3ZXtSi7Rv">
    <mxGraphModel dx="1696" dy="668" grid="1" gridSize="10" guides="1" tooltips="1" connect="1" arrows="1" fold="1" page="1" pageScale="1" pageWidth="850" pageHeight="1100" math="0" shadow="0">
      <root>
        <mxCell id="0" />
        <mxCell id="1" parent="0" />
        <mxCell id="ITS_ELQ2mrL48Rd3Em8j-6" style="edgeStyle=orthogonalEdgeStyle;rounded=0;orthogonalLoop=1;jettySize=auto;html=1;exitX=0.25;exitY=0;exitDx=0;exitDy=0;entryX=0;entryY=0;entryDx=0;entryDy=0;" edge="1" parent="1" source="ITS_ELQ2mrL48Rd3Em8j-1" target="ITS_ELQ2mrL48Rd3Em8j-2">
          <mxGeometry relative="1" as="geometry">
            <Array as="points">
              <mxPoint x="50" y="162" />
            </Array>
          </mxGeometry>
        </mxCell>
        <mxCell id="ITS_ELQ2mrL48Rd3Em8j-8" value="Add User Id&amp;nbsp;&lt;div&gt;and Password&lt;/div&gt;" style="edgeLabel;html=1;align=center;verticalAlign=middle;resizable=0;points=[];" vertex="1" connectable="0" parent="ITS_ELQ2mrL48Rd3Em8j-6">
          <mxGeometry x="-0.1199" y="2" relative="1" as="geometry">
            <mxPoint as="offset" />
          </mxGeometry>
        </mxCell>
        <mxCell id="ITS_ELQ2mrL48Rd3Em8j-26" style="edgeStyle=orthogonalEdgeStyle;rounded=0;orthogonalLoop=1;jettySize=auto;html=1;exitX=0.75;exitY=1;exitDx=0;exitDy=0;entryX=0;entryY=0.5;entryDx=0;entryDy=0;" edge="1" parent="1" source="ITS_ELQ2mrL48Rd3Em8j-1" target="ITS_ELQ2mrL48Rd3Em8j-22">
          <mxGeometry relative="1" as="geometry" />
        </mxCell>
        <mxCell id="ITS_ELQ2mrL48Rd3Em8j-27" value="Add / Update / Delete&amp;nbsp;&lt;div&gt;items&lt;/div&gt;" style="edgeLabel;html=1;align=center;verticalAlign=middle;resizable=0;points=[];" vertex="1" connectable="0" parent="ITS_ELQ2mrL48Rd3Em8j-26">
          <mxGeometry x="0.1051" y="-2" relative="1" as="geometry">
            <mxPoint as="offset" />
          </mxGeometry>
        </mxCell>
        <mxCell id="ITS_ELQ2mrL48Rd3Em8j-57" style="edgeStyle=orthogonalEdgeStyle;rounded=0;orthogonalLoop=1;jettySize=auto;html=1;exitX=1;exitY=0;exitDx=0;exitDy=0;entryX=0;entryY=0;entryDx=0;entryDy=0;" edge="1" parent="1" source="ITS_ELQ2mrL48Rd3Em8j-1" target="ITS_ELQ2mrL48Rd3Em8j-4">
          <mxGeometry relative="1" as="geometry" />
        </mxCell>
        <mxCell id="ITS_ELQ2mrL48Rd3Em8j-58" value="Search for Product" style="edgeLabel;html=1;align=center;verticalAlign=middle;resizable=0;points=[];" vertex="1" connectable="0" parent="ITS_ELQ2mrL48Rd3Em8j-57">
          <mxGeometry x="-0.2046" y="-1" relative="1" as="geometry">
            <mxPoint as="offset" />
          </mxGeometry>
        </mxCell>
        <mxCell id="ITS_ELQ2mrL48Rd3Em8j-1" value="User" style="rounded=1;whiteSpace=wrap;html=1;" vertex="1" parent="1">
          <mxGeometry x="20" y="300" width="120" height="60" as="geometry" />
        </mxCell>
        <mxCell id="ITS_ELQ2mrL48Rd3Em8j-10" style="edgeStyle=orthogonalEdgeStyle;rounded=0;orthogonalLoop=1;jettySize=auto;html=1;exitX=0.5;exitY=0;exitDx=0;exitDy=0;entryX=0;entryY=0.25;entryDx=0;entryDy=0;" edge="1" parent="1" source="ITS_ELQ2mrL48Rd3Em8j-2" target="ITS_ELQ2mrL48Rd3Em8j-3">
          <mxGeometry relative="1" as="geometry" />
        </mxCell>
        <mxCell id="ITS_ELQ2mrL48Rd3Em8j-11" value="Check User id&amp;nbsp;&lt;div&gt;and Password&lt;/div&gt;" style="edgeLabel;html=1;align=center;verticalAlign=middle;resizable=0;points=[];" vertex="1" connectable="0" parent="ITS_ELQ2mrL48Rd3Em8j-10">
          <mxGeometry x="-0.4327" y="3" relative="1" as="geometry">
            <mxPoint as="offset" />
          </mxGeometry>
        </mxCell>
        <mxCell id="ITS_ELQ2mrL48Rd3Em8j-2" value="Login /&amp;nbsp;&lt;div&gt;Logout&lt;/div&gt;" style="ellipse;whiteSpace=wrap;html=1;aspect=fixed;" vertex="1" parent="1">
          <mxGeometry x="120" y="150" width="80" height="80" as="geometry" />
        </mxCell>
        <mxCell id="ITS_ELQ2mrL48Rd3Em8j-12" style="edgeStyle=orthogonalEdgeStyle;rounded=0;orthogonalLoop=1;jettySize=auto;html=1;exitX=0.25;exitY=1;exitDx=0;exitDy=0;entryX=1;entryY=0;entryDx=0;entryDy=0;" edge="1" parent="1" source="ITS_ELQ2mrL48Rd3Em8j-3" target="ITS_ELQ2mrL48Rd3Em8j-2">
          <mxGeometry relative="1" as="geometry">
            <Array as="points">
              <mxPoint x="220" y="130" />
              <mxPoint x="188" y="130" />
            </Array>
          </mxGeometry>
        </mxCell>
        <mxCell id="ITS_ELQ2mrL48Rd3Em8j-13" value="Ack" style="edgeLabel;html=1;align=center;verticalAlign=middle;resizable=0;points=[];" vertex="1" connectable="0" parent="ITS_ELQ2mrL48Rd3Em8j-12">
          <mxGeometry x="0.0255" relative="1" as="geometry">
            <mxPoint as="offset" />
          </mxGeometry>
        </mxCell>
        <mxCell id="ITS_ELQ2mrL48Rd3Em8j-36" style="edgeStyle=orthogonalEdgeStyle;rounded=0;orthogonalLoop=1;jettySize=auto;html=1;exitX=1;exitY=1;exitDx=0;exitDy=0;entryX=1;entryY=0.5;entryDx=0;entryDy=0;" edge="1" parent="1" source="ITS_ELQ2mrL48Rd3Em8j-3" target="ITS_ELQ2mrL48Rd3Em8j-22">
          <mxGeometry relative="1" as="geometry">
            <Array as="points">
              <mxPoint x="710" y="70" />
              <mxPoint x="710" y="260" />
              <mxPoint x="420" y="260" />
            </Array>
          </mxGeometry>
        </mxCell>
        <mxCell id="ITS_ELQ2mrL48Rd3Em8j-37" value="Ack" style="edgeLabel;html=1;align=center;verticalAlign=middle;resizable=0;points=[];" vertex="1" connectable="0" parent="ITS_ELQ2mrL48Rd3Em8j-36">
          <mxGeometry x="0.4622" y="5" relative="1" as="geometry">
            <mxPoint as="offset" />
          </mxGeometry>
        </mxCell>
        <mxCell id="ITS_ELQ2mrL48Rd3Em8j-53" style="edgeStyle=orthogonalEdgeStyle;rounded=0;orthogonalLoop=1;jettySize=auto;html=1;exitX=1;exitY=0.75;exitDx=0;exitDy=0;entryX=1;entryY=0.5;entryDx=0;entryDy=0;" edge="1" parent="1" source="ITS_ELQ2mrL48Rd3Em8j-3" target="ITS_ELQ2mrL48Rd3Em8j-38">
          <mxGeometry relative="1" as="geometry">
            <mxPoint x="380" y="621.9047619047619" as="targetPoint" />
            <Array as="points">
              <mxPoint x="740" y="310" />
              <mxPoint x="520" y="310" />
              <mxPoint x="520" y="600" />
            </Array>
          </mxGeometry>
        </mxCell>
        <mxCell id="ITS_ELQ2mrL48Rd3Em8j-54" value="Ack" style="edgeLabel;html=1;align=center;verticalAlign=middle;resizable=0;points=[];" vertex="1" connectable="0" parent="ITS_ELQ2mrL48Rd3Em8j-53">
          <mxGeometry x="0.4945" relative="1" as="geometry">
            <mxPoint as="offset" />
          </mxGeometry>
        </mxCell>
        <mxCell id="ITS_ELQ2mrL48Rd3Em8j-3" value="User Database" style="shape=partialRectangle;whiteSpace=wrap;html=1;left=0;right=0;fillColor=none;" vertex="1" parent="1">
          <mxGeometry x="620" y="10" width="120" height="60" as="geometry" />
        </mxCell>
        <mxCell id="ITS_ELQ2mrL48Rd3Em8j-16" style="edgeStyle=orthogonalEdgeStyle;rounded=0;orthogonalLoop=1;jettySize=auto;html=1;exitX=0.5;exitY=0;exitDx=0;exitDy=0;entryX=0;entryY=0.5;entryDx=0;entryDy=0;" edge="1" parent="1" source="ITS_ELQ2mrL48Rd3Em8j-4" target="ITS_ELQ2mrL48Rd3Em8j-5">
          <mxGeometry relative="1" as="geometry" />
        </mxCell>
        <mxCell id="ITS_ELQ2mrL48Rd3Em8j-17" value="Check for User&#39;s&amp;nbsp;&lt;div&gt;personalization&lt;/div&gt;" style="edgeLabel;html=1;align=center;verticalAlign=middle;resizable=0;points=[];" vertex="1" connectable="0" parent="ITS_ELQ2mrL48Rd3Em8j-16">
          <mxGeometry x="-0.0095" y="-1" relative="1" as="geometry">
            <mxPoint as="offset" />
          </mxGeometry>
        </mxCell>
        <mxCell id="ITS_ELQ2mrL48Rd3Em8j-59" style="edgeStyle=orthogonalEdgeStyle;rounded=0;orthogonalLoop=1;jettySize=auto;html=1;exitX=1;exitY=0.5;exitDx=0;exitDy=0;entryX=0.454;entryY=0.045;entryDx=0;entryDy=0;entryPerimeter=0;" edge="1" parent="1" target="ITS_ELQ2mrL48Rd3Em8j-55">
          <mxGeometry relative="1" as="geometry">
            <mxPoint x="350.00000000000364" y="330" as="sourcePoint" />
            <mxPoint x="710" y="385" as="targetPoint" />
          </mxGeometry>
        </mxCell>
        <mxCell id="ITS_ELQ2mrL48Rd3Em8j-60" value="Check for Product" style="edgeLabel;html=1;align=center;verticalAlign=middle;resizable=0;points=[];" vertex="1" connectable="0" parent="ITS_ELQ2mrL48Rd3Em8j-59">
          <mxGeometry x="0.0169" y="-2" relative="1" as="geometry">
            <mxPoint as="offset" />
          </mxGeometry>
        </mxCell>
        <mxCell id="ITS_ELQ2mrL48Rd3Em8j-4" value="Search System" style="ellipse;whiteSpace=wrap;html=1;aspect=fixed;" vertex="1" parent="1">
          <mxGeometry x="270" y="270" width="80" height="80" as="geometry" />
        </mxCell>
        <mxCell id="ITS_ELQ2mrL48Rd3Em8j-18" style="edgeStyle=orthogonalEdgeStyle;rounded=0;orthogonalLoop=1;jettySize=auto;html=1;exitX=0;exitY=1;exitDx=0;exitDy=0;entryX=1;entryY=0;entryDx=0;entryDy=0;" edge="1" parent="1" source="ITS_ELQ2mrL48Rd3Em8j-5" target="ITS_ELQ2mrL48Rd3Em8j-4">
          <mxGeometry relative="1" as="geometry" />
        </mxCell>
        <mxCell id="ITS_ELQ2mrL48Rd3Em8j-19" value="Ack with Data" style="edgeLabel;html=1;align=center;verticalAlign=middle;resizable=0;points=[];" vertex="1" connectable="0" parent="ITS_ELQ2mrL48Rd3Em8j-18">
          <mxGeometry x="-0.2656" relative="1" as="geometry">
            <mxPoint as="offset" />
          </mxGeometry>
        </mxCell>
        <mxCell id="ITS_ELQ2mrL48Rd3Em8j-30" style="edgeStyle=orthogonalEdgeStyle;rounded=0;orthogonalLoop=1;jettySize=auto;html=1;exitX=1;exitY=0;exitDx=0;exitDy=0;entryX=0.25;entryY=1;entryDx=0;entryDy=0;" edge="1" parent="1" source="ITS_ELQ2mrL48Rd3Em8j-5" target="ITS_ELQ2mrL48Rd3Em8j-3">
          <mxGeometry relative="1" as="geometry" />
        </mxCell>
        <mxCell id="ITS_ELQ2mrL48Rd3Em8j-31" value="Check user purchase history&lt;div&gt;&amp;nbsp;and other data&lt;/div&gt;" style="edgeLabel;html=1;align=center;verticalAlign=middle;resizable=0;points=[];" vertex="1" connectable="0" parent="ITS_ELQ2mrL48Rd3Em8j-30">
          <mxGeometry x="-0.5202" relative="1" as="geometry">
            <mxPoint x="34" as="offset" />
          </mxGeometry>
        </mxCell>
        <mxCell id="ITS_ELQ2mrL48Rd3Em8j-5" value="Personalization" style="ellipse;whiteSpace=wrap;html=1;aspect=fixed;" vertex="1" parent="1">
          <mxGeometry x="425" y="90" width="90" height="90" as="geometry" />
        </mxCell>
        <mxCell id="ITS_ELQ2mrL48Rd3Em8j-7" style="edgeStyle=orthogonalEdgeStyle;rounded=0;orthogonalLoop=1;jettySize=auto;html=1;exitX=0;exitY=1;exitDx=0;exitDy=0;entryX=0.41;entryY=0.021;entryDx=0;entryDy=0;entryPerimeter=0;" edge="1" parent="1" source="ITS_ELQ2mrL48Rd3Em8j-2" target="ITS_ELQ2mrL48Rd3Em8j-1">
          <mxGeometry relative="1" as="geometry" />
        </mxCell>
        <mxCell id="ITS_ELQ2mrL48Rd3Em8j-9" value="Ack" style="edgeLabel;html=1;align=center;verticalAlign=middle;resizable=0;points=[];" vertex="1" connectable="0" parent="ITS_ELQ2mrL48Rd3Em8j-7">
          <mxGeometry x="-0.2712" y="1" relative="1" as="geometry">
            <mxPoint as="offset" />
          </mxGeometry>
        </mxCell>
        <mxCell id="ITS_ELQ2mrL48Rd3Em8j-20" style="edgeStyle=orthogonalEdgeStyle;rounded=0;orthogonalLoop=1;jettySize=auto;html=1;exitX=0.5;exitY=1;exitDx=0;exitDy=0;entryX=1.003;entryY=0.361;entryDx=0;entryDy=0;entryPerimeter=0;" edge="1" parent="1" source="ITS_ELQ2mrL48Rd3Em8j-4" target="ITS_ELQ2mrL48Rd3Em8j-1">
          <mxGeometry relative="1" as="geometry" />
        </mxCell>
        <mxCell id="ITS_ELQ2mrL48Rd3Em8j-21" value="Show Personalized&lt;div&gt;&amp;nbsp;Result&lt;/div&gt;" style="edgeLabel;html=1;align=center;verticalAlign=middle;resizable=0;points=[];" vertex="1" connectable="0" parent="ITS_ELQ2mrL48Rd3Em8j-20">
          <mxGeometry x="0.0125" y="-2" relative="1" as="geometry">
            <mxPoint as="offset" />
          </mxGeometry>
        </mxCell>
        <mxCell id="ITS_ELQ2mrL48Rd3Em8j-34" style="edgeStyle=orthogonalEdgeStyle;rounded=0;orthogonalLoop=1;jettySize=auto;html=1;exitX=0.5;exitY=0;exitDx=0;exitDy=0;" edge="1" parent="1" source="ITS_ELQ2mrL48Rd3Em8j-22">
          <mxGeometry relative="1" as="geometry">
            <mxPoint x="690" y="70" as="targetPoint" />
            <Array as="points">
              <mxPoint x="380" y="240" />
              <mxPoint x="690" y="240" />
              <mxPoint x="690" y="70" />
            </Array>
          </mxGeometry>
        </mxCell>
        <mxCell id="ITS_ELQ2mrL48Rd3Em8j-35" value="Maintain user cart" style="edgeLabel;html=1;align=center;verticalAlign=middle;resizable=0;points=[];" vertex="1" connectable="0" parent="ITS_ELQ2mrL48Rd3Em8j-34">
          <mxGeometry x="-0.2692" y="3" relative="1" as="geometry">
            <mxPoint as="offset" />
          </mxGeometry>
        </mxCell>
        <mxCell id="ITS_ELQ2mrL48Rd3Em8j-43" style="edgeStyle=orthogonalEdgeStyle;rounded=0;orthogonalLoop=1;jettySize=auto;html=1;exitX=1;exitY=1;exitDx=0;exitDy=0;entryX=1;entryY=0;entryDx=0;entryDy=0;" edge="1" parent="1" source="ITS_ELQ2mrL48Rd3Em8j-22" target="ITS_ELQ2mrL48Rd3Em8j-38">
          <mxGeometry relative="1" as="geometry">
            <Array as="points">
              <mxPoint x="408" y="550" />
              <mxPoint x="370" y="550" />
              <mxPoint x="370" y="572" />
            </Array>
          </mxGeometry>
        </mxCell>
        <mxCell id="ITS_ELQ2mrL48Rd3Em8j-44" value="Ack" style="edgeLabel;html=1;align=center;verticalAlign=middle;resizable=0;points=[];" vertex="1" connectable="0" parent="ITS_ELQ2mrL48Rd3Em8j-43">
          <mxGeometry x="-0.0821" y="3" relative="1" as="geometry">
            <mxPoint as="offset" />
          </mxGeometry>
        </mxCell>
        <mxCell id="ITS_ELQ2mrL48Rd3Em8j-22" value="Cart system" style="ellipse;whiteSpace=wrap;html=1;aspect=fixed;" vertex="1" parent="1">
          <mxGeometry x="340" y="410" width="80" height="80" as="geometry" />
        </mxCell>
        <mxCell id="ITS_ELQ2mrL48Rd3Em8j-32" style="edgeStyle=orthogonalEdgeStyle;rounded=0;orthogonalLoop=1;jettySize=auto;html=1;exitX=0.5;exitY=1;exitDx=0;exitDy=0;entryX=1.009;entryY=0.544;entryDx=0;entryDy=0;entryPerimeter=0;" edge="1" parent="1" source="ITS_ELQ2mrL48Rd3Em8j-3" target="ITS_ELQ2mrL48Rd3Em8j-5">
          <mxGeometry relative="1" as="geometry">
            <Array as="points">
              <mxPoint x="670" y="70" />
              <mxPoint x="670" y="139" />
            </Array>
          </mxGeometry>
        </mxCell>
        <mxCell id="ITS_ELQ2mrL48Rd3Em8j-33" value="Ack" style="edgeLabel;html=1;align=center;verticalAlign=middle;resizable=0;points=[];" vertex="1" connectable="0" parent="ITS_ELQ2mrL48Rd3Em8j-32">
          <mxGeometry x="0.1223" y="1" relative="1" as="geometry">
            <mxPoint as="offset" />
          </mxGeometry>
        </mxCell>
        <mxCell id="ITS_ELQ2mrL48Rd3Em8j-41" style="edgeStyle=orthogonalEdgeStyle;rounded=0;orthogonalLoop=1;jettySize=auto;html=1;exitX=0.5;exitY=0;exitDx=0;exitDy=0;entryX=0;entryY=1;entryDx=0;entryDy=0;" edge="1" parent="1" source="ITS_ELQ2mrL48Rd3Em8j-38" target="ITS_ELQ2mrL48Rd3Em8j-22">
          <mxGeometry relative="1" as="geometry" />
        </mxCell>
        <mxCell id="ITS_ELQ2mrL48Rd3Em8j-42" value="Check for user&amp;nbsp;&lt;div&gt;cart items&lt;/div&gt;" style="edgeLabel;html=1;align=center;verticalAlign=middle;resizable=0;points=[];" vertex="1" connectable="0" parent="ITS_ELQ2mrL48Rd3Em8j-41">
          <mxGeometry x="0.0663" y="-1" relative="1" as="geometry">
            <mxPoint as="offset" />
          </mxGeometry>
        </mxCell>
        <mxCell id="ITS_ELQ2mrL48Rd3Em8j-45" style="edgeStyle=orthogonalEdgeStyle;rounded=0;orthogonalLoop=1;jettySize=auto;html=1;exitX=0;exitY=0.5;exitDx=0;exitDy=0;entryX=0;entryY=0;entryDx=0;entryDy=0;" edge="1" parent="1" source="ITS_ELQ2mrL48Rd3Em8j-38" target="ITS_ELQ2mrL48Rd3Em8j-39">
          <mxGeometry relative="1" as="geometry">
            <Array as="points">
              <mxPoint x="290" y="640" />
              <mxPoint x="270" y="640" />
              <mxPoint x="270" y="675" />
              <mxPoint x="282" y="675" />
            </Array>
          </mxGeometry>
        </mxCell>
        <mxCell id="ITS_ELQ2mrL48Rd3Em8j-46" value="Provide user detail&amp;nbsp;&lt;div&gt;with amount&lt;/div&gt;" style="edgeLabel;html=1;align=center;verticalAlign=middle;resizable=0;points=[];" vertex="1" connectable="0" parent="ITS_ELQ2mrL48Rd3Em8j-45">
          <mxGeometry x="-0.2032" y="1" relative="1" as="geometry">
            <mxPoint as="offset" />
          </mxGeometry>
        </mxCell>
        <mxCell id="ITS_ELQ2mrL48Rd3Em8j-38" value="Payment System" style="ellipse;whiteSpace=wrap;html=1;aspect=fixed;" vertex="1" parent="1">
          <mxGeometry x="290" y="560" width="80" height="80" as="geometry" />
        </mxCell>
        <mxCell id="ITS_ELQ2mrL48Rd3Em8j-49" style="edgeStyle=orthogonalEdgeStyle;rounded=0;orthogonalLoop=1;jettySize=auto;html=1;exitX=1;exitY=0;exitDx=0;exitDy=0;entryX=0.5;entryY=1;entryDx=0;entryDy=0;" edge="1" parent="1" source="ITS_ELQ2mrL48Rd3Em8j-39" target="ITS_ELQ2mrL48Rd3Em8j-38">
          <mxGeometry relative="1" as="geometry">
            <Array as="points">
              <mxPoint x="328" y="722" />
              <mxPoint x="330" y="722" />
              <mxPoint x="330" y="675" />
              <mxPoint x="358" y="675" />
              <mxPoint x="358" y="640" />
            </Array>
          </mxGeometry>
        </mxCell>
        <mxCell id="ITS_ELQ2mrL48Rd3Em8j-50" value="Ack" style="edgeLabel;html=1;align=center;verticalAlign=middle;resizable=0;points=[];" vertex="1" connectable="0" parent="ITS_ELQ2mrL48Rd3Em8j-49">
          <mxGeometry x="-0.1348" y="1" relative="1" as="geometry">
            <mxPoint as="offset" />
          </mxGeometry>
        </mxCell>
        <mxCell id="ITS_ELQ2mrL48Rd3Em8j-39" value="Payment Gateway" style="ellipse;whiteSpace=wrap;html=1;aspect=fixed;" vertex="1" parent="1">
          <mxGeometry x="260" y="820" width="80" height="80" as="geometry" />
        </mxCell>
        <mxCell id="ITS_ELQ2mrL48Rd3Em8j-51" style="edgeStyle=orthogonalEdgeStyle;rounded=0;orthogonalLoop=1;jettySize=auto;html=1;entryX=0.91;entryY=1.045;entryDx=0;entryDy=0;entryPerimeter=0;" edge="1" parent="1" target="ITS_ELQ2mrL48Rd3Em8j-3">
          <mxGeometry relative="1" as="geometry">
            <mxPoint x="370" y="590" as="sourcePoint" />
            <Array as="points">
              <mxPoint x="370" y="580" />
              <mxPoint x="490" y="580" />
              <mxPoint x="490" y="280" />
              <mxPoint x="729" y="280" />
            </Array>
          </mxGeometry>
        </mxCell>
        <mxCell id="ITS_ELQ2mrL48Rd3Em8j-52" value="Check for User detail" style="edgeLabel;html=1;align=center;verticalAlign=middle;resizable=0;points=[];" vertex="1" connectable="0" parent="ITS_ELQ2mrL48Rd3Em8j-51">
          <mxGeometry x="-0.4153" y="-2" relative="1" as="geometry">
            <mxPoint as="offset" />
          </mxGeometry>
        </mxCell>
        <mxCell id="ITS_ELQ2mrL48Rd3Em8j-61" style="edgeStyle=orthogonalEdgeStyle;rounded=0;orthogonalLoop=1;jettySize=auto;html=1;exitX=0;exitY=0.25;exitDx=0;exitDy=0;entryX=1;entryY=1;entryDx=0;entryDy=0;" edge="1" parent="1" source="ITS_ELQ2mrL48Rd3Em8j-55" target="ITS_ELQ2mrL48Rd3Em8j-4">
          <mxGeometry relative="1" as="geometry" />
        </mxCell>
        <mxCell id="ITS_ELQ2mrL48Rd3Em8j-62" value="Results" style="edgeLabel;html=1;align=center;verticalAlign=middle;resizable=0;points=[];" vertex="1" connectable="0" parent="ITS_ELQ2mrL48Rd3Em8j-61">
          <mxGeometry x="-0.5082" y="2" relative="1" as="geometry">
            <mxPoint as="offset" />
          </mxGeometry>
        </mxCell>
        <mxCell id="ITS_ELQ2mrL48Rd3Em8j-65" style="edgeStyle=orthogonalEdgeStyle;rounded=0;orthogonalLoop=1;jettySize=auto;html=1;exitX=0.5;exitY=1;exitDx=0;exitDy=0;entryX=0.776;entryY=0.933;entryDx=0;entryDy=0;entryPerimeter=0;" edge="1" parent="1" source="ITS_ELQ2mrL48Rd3Em8j-55" target="ITS_ELQ2mrL48Rd3Em8j-38">
          <mxGeometry relative="1" as="geometry">
            <mxPoint x="410" y="680.952380952381" as="targetPoint" />
            <Array as="points">
              <mxPoint x="770" y="650" />
              <mxPoint x="390" y="650" />
              <mxPoint x="390" y="635" />
            </Array>
          </mxGeometry>
        </mxCell>
        <mxCell id="ITS_ELQ2mrL48Rd3Em8j-66" value="Ack" style="edgeLabel;html=1;align=center;verticalAlign=middle;resizable=0;points=[];" vertex="1" connectable="0" parent="ITS_ELQ2mrL48Rd3Em8j-65">
          <mxGeometry x="0.3913" relative="1" as="geometry">
            <mxPoint as="offset" />
          </mxGeometry>
        </mxCell>
        <mxCell id="ITS_ELQ2mrL48Rd3Em8j-55" value="Product Database" style="shape=partialRectangle;whiteSpace=wrap;html=1;left=0;right=0;fillColor=none;" vertex="1" parent="1">
          <mxGeometry x="710" y="350" width="120" height="60" as="geometry" />
        </mxCell>
        <mxCell id="ITS_ELQ2mrL48Rd3Em8j-63" style="edgeStyle=orthogonalEdgeStyle;rounded=0;orthogonalLoop=1;jettySize=auto;html=1;exitX=1;exitY=1;exitDx=0;exitDy=0;entryX=0.192;entryY=1.061;entryDx=0;entryDy=0;entryPerimeter=0;" edge="1" parent="1" source="ITS_ELQ2mrL48Rd3Em8j-38" target="ITS_ELQ2mrL48Rd3Em8j-55">
          <mxGeometry relative="1" as="geometry">
            <Array as="points">
              <mxPoint x="370" y="628" />
              <mxPoint x="370" y="620" />
              <mxPoint x="733" y="620" />
            </Array>
          </mxGeometry>
        </mxCell>
        <mxCell id="ITS_ELQ2mrL48Rd3Em8j-64" value="Check for Product Price" style="edgeLabel;html=1;align=center;verticalAlign=middle;resizable=0;points=[];" vertex="1" connectable="0" parent="ITS_ELQ2mrL48Rd3Em8j-63">
          <mxGeometry x="-0.1841" y="-1" relative="1" as="geometry">
            <mxPoint as="offset" />
          </mxGeometry>
        </mxCell>
      </root>
    </mxGraphModel>
  </diagram>
</mxfile>
